<svg xmlns="http://www.w3.org/2000/svg" width="512" height="512" viewBox="0 0 499.42 499.42"><path d="M277.087 180.337c12.604-13.077 19.558-30.285 19.558-48.467 0-38.499-31.31-69.81-69.809-69.81-38.496 0-69.809 31.311-69.809 69.81 0 18.176 6.945 35.39 19.564 48.467 2.226 2.313 2.17 5.998-.143 8.229a5.807 5.807 0 0 1-4.034 1.635c-1.528 0-3.042-.6-4.183-1.784-14.724-15.256-22.834-35.342-22.834-56.547 0-44.914 36.532-81.452 81.452-81.452 44.917 0 81.452 36.538 81.452 81.452 0 21.205-8.104 41.291-22.828 56.547-2.223 2.32-5.9 2.375-8.227.149a5.8 5.8 0 0 1-.159-8.229zm-136.284 43.848a5.828 5.828 0 0 0 .091-8.232c-22.116-22.597-34.3-52.458-34.3-84.082 0-66.296 53.938-120.236 120.236-120.236 66.295 0 120.234 53.94 120.234 120.236 0 31.63-12.179 61.491-34.301 84.088a5.813 5.813 0 0 0 .092 8.227 5.81 5.81 0 0 0 4.067 1.662 5.834 5.834 0 0 0 4.159-1.744c24.265-24.786 37.618-57.546 37.618-92.232C358.7 59.153 299.543 0 226.83 0 154.114 0 94.96 59.153 94.96 131.87c0 34.687 13.363 67.44 37.616 92.227 2.247 2.292 5.937 2.332 8.227.088zM383.654 473.81l-6.681 21.495a5.856 5.856 0 0 1-5.596 4.115h-.006l-124.414-.182a5.858 5.858 0 0 1-5.486-3.807 5.839 5.839 0 0 1 1.632-6.467c-.018 0 .993-1.113.911-3.111-.085-1.961-1.315-6.187-8.574-12.403-2.268-2.149-51.055-48.445-71.843-84.657-5.742-8.08-48.241-69.216-38.06-96.1 2.408-6.369 7.419-10.644 14.529-12.379 3.206-1.139 6.479-1.717 9.733-1.717 18.669 0 32.516 18.328 42.624 31.706 2.226 2.959 5.033 6.667 7.134 8.976.91-4.074 1.888-13.208 1.79-33.686 0-.207.006-.426.03-.646.037-.305 3.105-30.957 3.285-128.828-1.184-.244-2.338-.761-3.203-1.735a33.875 33.875 0 0 1-8.549-22.521c0-18.712 15.22-33.938 33.932-33.938s33.932 15.226 33.932 33.938c0 7.389-2.502 14.428-6.901 20.283.124 1.184.249 2.415.387 3.742 1.142 11.305 2.368 26.101 3.659 41.763 1.692 20.584 3.897 47.246 5.614 59.542 5.078-2.594 12.306-5.352 20.137-5.352 8.616 0 20.222 3.349 28.832 18.371 4.007-1.529 9.768-3.179 16.1-3.179 10.218 0 23.748 4.183 31.664 23.479 7.185 1.279 23.047 5.389 33.381 17.756 7.246 8.665 10.363 19.547 9.292 32.37.899 8.046 8.122 80.33-19.285 133.172zM204.532 131.87c0 2.362.438 4.664 1.16 6.872 3.574-21.062 12.607-25.815 19.966-25.815 9.931 0 19.129 9.252 23.352 17.747-.643-11.731-10.291-21.103-22.18-21.103-12.303-.006-22.298 10.002-22.298 22.299zm186.672 209.568a6.18 6.18 0 0 1-.012-1.261c.92-9.84-1.267-18.023-6.516-24.332-10.235-12.331-29.015-14.157-29.21-14.176-2.302-.213-4.286-1.747-5.035-3.927-4.402-12.781-11.552-18.986-21.854-18.986-8.378 0-15.795 4.158-15.868 4.201a5.857 5.857 0 0 1-4.725.481 5.828 5.828 0 0 1-3.532-3.167c-5.042-11.24-11.85-16.708-20.807-16.708-10.382 0-20.21 7.331-20.308 7.41a5.856 5.856 0 0 1-5.236.968c-5.413-1.607-5.985-1.777-11.886-73.328-1.34-16.146-2.887-34.924-4.196-46.829-.076-.387-.137-.749-.131-1.136-.53-4.683-1.017-8.205-1.428-9.819a5.953 5.953 0 0 1-.804-1.951c-1.212-5.624-8.948-14.237-14.018-14.237-3.318 0-7.721 5.913-9.28 22.56-.006 101.366-2.947 134.848-3.321 138.647.131 31.943-2.128 40.511-6.086 44.487-1.677 1.687-3.766 2.575-6.049 2.575-6.129 0-10.799-6.18-17.869-15.533-8.625-11.423-20.429-27.048-33.265-27.048-1.985 0-4.022.378-6.038 1.12-.225.08-.459.146-.697.207-4.472 1.035-5.849 3.312-6.567 5.188-6.092 16.1 19.342 60.916 36.809 85.376.119.152.216.322.317.499 19.848 34.727 69.182 81.552 69.672 82.015 8.162 6.99 12.415 14.213 12.452 21.275 0 .524-.024 1.023-.061 1.511l111.386.164 5.56-17.865c.104-.335.23-.664.396-.98 27.048-51.579 18.31-126.647 18.207-127.401z" data-original="#000000" class="active-path" data-old_color="#2196f3" fill="#2196f3"/></svg>